<?xml version="1.0" encoding="UTF-8"?>
<svg width="44px" height="44px" viewBox="0 0 44 44" version="1.1" xmlns="http://www.w3.org/2000/svg" xmlns:xlink="http://www.w3.org/1999/xlink">
    <!-- Generator: Sketch 51.3 (57544) - http://www.bohemiancoding.com/sketch -->
    <title>sjalvtest</title>
    <desc>Created with Sketch.</desc>
    <defs>
        <linearGradient x1="111.217434%" y1="50.1517649%" x2="-11.1967105%" y2="50.1517649%" id="linearGradient-1">
            <stop stop-color="#E41913" offset="0%"></stop>
            <stop stop-color="#EA6516" offset="9.74402%"></stop>
            <stop stop-color="#F3A518" offset="21.48%"></stop>
            <stop stop-color="#F9CD1A" offset="31.21%"></stop>
            <stop stop-color="#FDE31A" offset="38.4%"></stop>
            <stop stop-color="#FEEB1A" offset="42.28%"></stop>
            <stop stop-color="#DFDE20" offset="62.31%"></stop>
            <stop stop-color="#009245" offset="100%"></stop>
        </linearGradient>
    </defs>
    <g id="Categories" stroke="none" stroke-width="1" fill="none" fill-rule="evenodd">
        <g id="sjalvtest">
            <g id="Group" fill-rule="nonzero">
                <path d="M21.9,42.8 C16.4,42.7 11.2,40.5 7.3,36.6 C3.4,32.6 1.3,27.4 1.4,21.8 C1.5,10.5 10.8,1.2 22.2,1.2 L22.4,1.2 C27.9,1.3 33.1,3.5 37,7.4 C40.9,11.4 43,16.6 42.9,22.2 C42.8,33.5 33.5,42.8 22.1,42.8 L21.9,42.8 Z" id="Shape" fill="#FFFFFF"></path>
                <path d="M22.1,0.7 L22.1,1.7 L22.3,1.7 C27.7,1.8 32.8,3.9 36.6,7.8 C40.4,11.7 42.4,16.8 42.4,22.2 C42.3,33.3 33.2,42.3 22.1,42.3 L21.9,42.3 C16.5,42.2 11.4,40.1 7.6,36.2 C3.8,32.3 1.8,27.2 1.8,21.8 C1.9,10.7 11,1.7 22.1,1.7 L22.1,0.7 Z M22.1,0.7 C10.5,0.7 1,10.1 0.8,21.7 C0.7,33.4 10.1,43.1 21.8,43.2 C21.9,43.2 21.9,43.2 22,43.2 C33.6,43.2 43.1,33.8 43.3,22.2 C43.4,10.5 34,0.8 22.3,0.7 C22.3,0.7 22.2,0.7 22.1,0.7 Z" id="Shape" fill="#020203"></path>
            </g>
            <path d="M37.2,21.7 C35,3.1 9.4,2.7 6.8,21.7" id="Shape" stroke="url(#linearGradient-1)" stroke-width="6.7742" stroke-linecap="round"></path>
            <path d="M17.7,22.3 L26.5,6.5 L24.7,24.5 C24.1,26.4 22,27.5 20.1,26.9 C18.2,26.3 17.1,24.2 17.7,22.3 Z" id="Shape" fill="#1E1E1C" fill-rule="nonzero"></path>
        </g>
    </g>
</svg>